<svg width="375" height="228" viewBox="0 0 375 228" fill="none" xmlns="http://www.w3.org/2000/svg">
<path d="M330.526 44.6982L647.968 305L675 305L324.759 17.0763C308.305 4.61209 289.5 -15.3307 249.54 19.5692C211.424 52.8577 3.50916 224.813 -96 303.754L-19.6052 303.754C99.6709 206.569 174.473 146.941 300.117 44.6698C308.97 37.4642 321.7 37.4607 330.526 44.6982Z" fill="#FBF6F6"/>
<path d="M79.222 40.3575C91.3286 30.4367 97.3819 25.4763 104.137 23.6201C109.845 22.0515 115.869 22.0471 121.579 23.6074C128.336 25.4538 134.396 30.4053 146.515 40.3084L375.841 227.698L-149.861 228.081L79.222 40.3575Z" fill="#FFE500"/>
</svg>
